<svg width="7047" height="1397" xmlns="http://www.w3.org/2000/svg" xmlns:xlink="http://www.w3.org/1999/xlink" xml:space="preserve" overflow="hidden"><defs><clipPath id="clip0"><rect x="-186" y="180" width="7047" height="1397"/></clipPath></defs><g clip-path="url(#clip0)" transform="translate(186 -180)"><text fill="#FFFFFF" font-family="Times New Roman,Times New Roman_MSFontService,sans-serif" font-weight="700" font-size="633" transform="matrix(1 0 0 1 1123.43 981)">Archie Tram,</text><text fill="#FFFFFF" font-family="Times New Roman,Times New Roman_MSFontService,sans-serif" font-weight="700" font-size="633" transform="matrix(1 0 0 1 4970 981)">Ph.D.</text><path d="M1290 1149 6176.77 1149" stroke="#FFFFFF" stroke-width="27.5" stroke-miterlimit="8" fill="none" fill-rule="evenodd"/><path d="M205.5 534.5C205.5 528.425 210.425 523.5 216.5 523.5L260.5 523.5C266.575 523.5 271.5 528.425 271.5 534.5L271.5 1523.5C271.5 1529.58 266.575 1534.5 260.5 1534.5L216.5 1534.5C210.425 1534.5 205.5 1529.58 205.5 1523.5Z" stroke="#FFFFFF" stroke-width="4.58333" stroke-miterlimit="8" fill="#FFFFFF" fill-rule="evenodd"/><path d="M621.5 580.5C621.5 574.425 626.425 569.5 632.5 569.5L676.5 569.5C682.575 569.5 687.5 574.425 687.5 580.5L687.5 1183.5C687.5 1189.57 682.575 1194.5 676.5 1194.5L632.5 1194.5C626.425 1194.5 621.5 1189.57 621.5 1183.5Z" stroke="#FFFFFF" stroke-width="4.58333" stroke-miterlimit="8" fill="#FFFFFF" fill-rule="evenodd"/><path d="M210.237 798.108C205.941 793.812 205.941 786.847 210.237 782.551L241.35 751.437C245.646 747.141 252.611 747.141 256.907 751.437L682.774 1177.3C687.07 1181.6 687.07 1188.56 682.774 1192.86L651.66 1223.97C647.364 1228.27 640.399 1228.27 636.103 1223.97Z" stroke="#FFFFFF" stroke-width="4.58333" stroke-miterlimit="8" fill="#FFFFFF" fill-rule="evenodd"/><path d="M0 11.0005C0 4.92507 4.92512-3.72551e-15 11.0006-4.96735e-15L55.0015 0C61.0769-1.24184e-15 66.0021 4.92507 66.0021 11.0005L66.0021 613.267C66.0021 619.342 61.0769 624.267 55.0015 624.267L11.0006 624.267C4.92512 624.267-2.4837e-15 619.342-2.4837e-15 613.267Z" stroke="#FFFFFF" stroke-width="4.58333" stroke-miterlimit="8" fill="#FFFFFF" fill-rule="evenodd" transform="matrix(-0.707107 -0.707107 -0.707107 0.707107 789.701 477.822)"/><path d="M0 11.0002C-1.53989e-15 4.92494 4.92496-3.07976e-15 11.0002-3.07976e-15L54.9998 0C61.075-3.07976e-15 66 4.92494 66 11.0002L66 376.046C66 382.121 61.075 387.046 54.9998 387.046L11.0002 387.046C4.92496 387.046-1.53989e-15 382.121 0 376.046Z" stroke="#FFFFFF" stroke-width="4.58333" stroke-miterlimit="8" fill="#FFFFFF" fill-rule="evenodd" transform="matrix(-0.707107 -0.707107 -0.707107 0.707107 522.863 1108.56)"/><path d="M-172 958C-172 623.868 98.644 353 432.5 353 766.356 353 1037 623.868 1037 958 1037 1292.13 766.356 1563 432.5 1563 98.644 1563-172 1292.13-172 958Z" stroke="#FFFFFF" stroke-width="27.5" stroke-miterlimit="8" fill="none" fill-rule="evenodd"/></g></svg>