<svg width="6126" height="1598" xmlns="http://www.w3.org/2000/svg" xmlns:xlink="http://www.w3.org/1999/xlink" xml:space="preserve" overflow="hidden"><defs><clipPath id="clip0"><rect x="479" y="65" width="6126" height="1598"/></clipPath></defs><g clip-path="url(#clip0)" transform="translate(-479 -65)"><text fill="#FFFFFF" font-family="Times New Roman,Times New Roman_MSFontService,sans-serif" font-weight="700" font-size="761" transform="matrix(1 0 0 1 1902.15 1028)">Archie </text><text fill="#FFFFFF" font-family="Times New Roman,Times New Roman_MSFontService,sans-serif" font-weight="700" font-size="761" transform="matrix(1 0 0 1 4288.92 1028)">Tram</text><path d="M1869 1306 6060.85 1306" stroke="#FFFFFF" stroke-width="27.5" stroke-miterlimit="8" fill="none" fill-rule="evenodd"/><path d="M870.5 532.489C870.5 526.42 875.42 521.5 881.489 521.5L925.445 521.5C931.515 521.5 936.435 526.42 936.435 532.489L936.435 1521.51C936.435 1527.58 931.515 1532.5 925.445 1532.5L881.489 1532.5C875.42 1532.5 870.5 1527.58 870.5 1521.51Z" stroke="#FFFFFF" stroke-width="4.58333" stroke-miterlimit="8" fill="#FFFFFF" fill-rule="evenodd"/><path d="M1287.5 579.495C1287.5 573.423 1292.42 568.5 1298.49 568.5L1342.48 568.5C1348.55 568.5 1353.47 573.423 1353.47 579.495L1353.47 1181.5C1353.47 1187.58 1348.55 1192.5 1342.48 1192.5L1298.49 1192.5C1292.42 1192.5 1287.5 1187.58 1287.5 1181.5Z" stroke="#FFFFFF" stroke-width="4.58333" stroke-miterlimit="8" fill="#FFFFFF" fill-rule="evenodd"/><path d="M875.736 796.546C871.44 792.251 871.44 785.286 875.736 780.99L906.849 749.877C911.145 745.582 918.109 745.582 922.405 749.877L1348.27 1175.74C1352.57 1180.04 1352.57 1187.01 1348.27 1191.3L1317.16 1222.41C1312.86 1226.71 1305.9 1226.71 1301.6 1222.41Z" stroke="#FFFFFF" stroke-width="4.58333" stroke-miterlimit="8" fill="#FFFFFF" fill-rule="evenodd"/><path d="M0 10.9998C-1.24185e-15 4.92477 4.92482-3.72551e-15 10.9999-4.96735e-15L55.0001 0C61.0752-2.48367e-15 66 4.92477 66 10.9998L66 613.268C66 619.343 61.0752 624.267 55.0001 624.267L10.9999 624.267C4.92482 624.267 0 619.343 0 613.268Z" stroke="#FFFFFF" stroke-width="4.58333" stroke-miterlimit="8" fill="#FFFFFF" fill-rule="evenodd" transform="matrix(-0.707107 -0.707107 -0.707107 0.707107 1455.2 476.261)"/><path d="M0 11.0002C-1.53989e-15 4.92494 4.92496-3.07976e-15 11.0002-3.07976e-15L54.9998 0C61.075-3.07976e-15 66 4.92494 66 11.0002L66 376.046C66 382.121 61.075 387.046 54.9998 387.046L11.0002 387.046C4.92496 387.046-1.53989e-15 382.121 0 376.046Z" stroke="#FFFFFF" stroke-width="4.58333" stroke-miterlimit="8" fill="#FFFFFF" fill-rule="evenodd" transform="matrix(-0.707107 -0.707107 -0.707107 0.707107 1188.36 1107)"/><path d="M493 957C493 622.868 763.868 352 1098 352 1432.13 352 1703 622.868 1703 957 1703 1291.13 1432.13 1562 1098 1562 763.868 1562 493 1291.13 493 957Z" stroke="#FFFFFF" stroke-width="27.5" stroke-miterlimit="8" fill="none" fill-rule="evenodd"/></g></svg>